P2
33 33
33
16
13
13
12
10
17
11
17
13
12
12
12
13
13
12
12
12
12
12
11
12
13
12
12
13
12
10
12
12
11
13
17
11
13
13
13
12
10
17
11
10
11
13
12
12
12
13
17
13
12
12
12
11
11
13
13
11
12
11
10
12
15
11
10
17
17
13
13
13
13
10
17
11
17
11
13
12
12
11
12
12
12
12
12
12
11
11
15
15
15
11
13
10
12
15
11
13
17
11
13
13
13
13
9
11
10
16
11
12
12
12
11
11
17
12
12
15
12
12
11
15
15
15
12
13
12
12
12
11
10
17
17
16
13
13
10
9
17
9
16
17
12
12
11
12
12
17
12
13
12
15
12
12
13
15
15
15
13
12
11
12
11
12
12
17
13
13
13
10
10
17
9
16
12
12
12
12
13
13
12
12
12
12
12
11
11
13
15
15
15
13
12
11
14
11
12
14
11
16
13
13
12
9
9
9
10
12
13
11
11
13
15
12
15
12
12
12
11
12
13
15
12
15
13
11
17
12
12
11
11
15
10
17
12
9
9
15
13
16
11
12
11
11
11
15
12
12
12
15
12
12
12
13
15
14
14
13
11
17
12
11
11
11
11
10
17
13
9
10
15
13
11
12
12
11
11
13
14
14
15
12
15
12
12
12
11
15
14
13
17
11
12
12
11
11
11
11
13
17
13
9
15
15
13
10
14
14
13
13
13
15
12
15
12
12
11
11
12
13
13
15
14
17
13
12
11
11
12
9
11
13
13
11
9
12
15
11
11
14
12
13
14
11
14
14
15
12
12
12
12
12
13
13
15
13
13
13
11
12
12
12
9
17
16
11
11
9
15
13
13
16
11
14
11
11
11
15
14
15
12
15
11
12
12
13
15
12
13
13
13
12
11
12
12
17
11
16
11
11
12
10
13
12
16
12
13
11
11
11
13
12
15
12
15
12
12
12
15
13
15
14
17
13
12
12
12
12
17
17
16
11
13
9
12
13
12
16
17
13
11
14
11
15
12
15
12
12
15
12
13
15
13
15
15
17
13
11
12
12
12
12
11
16
9
13
9
12
15
12
10
17
12
11
14
12
15
12
15
13
15
11
13
11
15
13
12
15
17
14
12
11
12
12
17
17
16
11
13
9
9
15
12
16
17
12
11
11
11
14
14
12
15
15
11
15
11
15
13
15
14
13
13
12
12
12
12
17
11
16
9
13
9
12
9
13
16
12
12
11
13
11
14
12
12
15
13
11
13
13
15
13
12
15
17
13
17
17
12
12
12
10
16
9
11
9
12
9
12
16
17
13
12
13
11
15
14
12
13
11
11
12
12
13
15
12
14
13
11
12
11
11
12
12
10
13
11
13
9
10
9
9
16
11
12
12
12
13
14
14
12
15
15
15
12
12
13
13
12
15
13
13
17
11
11
12
12
11
13
11
11
12
10
17
9
16
17
12
12
12
12
13
12
15
12
15
11
11
12
13
13
14
14
13
14
17
12
11
12
9
17
13
13
11
12
10
17
17
16
17
12
12
11
11
11
12
13
12
12
12
12
12
11
13
15
13
9
14
12
12
12
12
17
11
13
13
12
12
10
17
9
16
13
12
12
11
11
12
11
12
12
13
12
12
12
11
13
14
14
17
14
12
12
12
12
9
11
10
17
13
10
10
11
10
17
11
13
12
12
12
11
11
11
11
12
11
12
12
13
15
14
13
13
11
12
11
11
12
12
10
10
17
13
12
9
10
10
10
12
12
12
12
11
11
17
17
12
12
12
12
12
11
13
15
14
17
13
12
12
12
12
10
13
13
13
13
13
10
17
10
16
14
12
12
11
11
12
14
15
10
12
11
12
12
12
15
11
15
13
11
17
12
12
12
10
12
16
16
14
15
15
13
17
17
14
14
12
12
12
12
14
15
15
11
11
11
12
12
13
15
15
13
11
17
11
12
12
10
13
16
10
17
12
14
12
17
17
14
15
10
12
12
9
14
12
15
10
11
11
12
12
13
11
11
13
12
12
12
12
10
10
10
16
16
18
14
14
20
17
16
14
15
10
13
12
12
12
14
15
10
11
15
11
14
13
15
12
13
11
12
11
12
10
10
10
14
14
16
14
20
17
17
16
14
14
13
13
12
12
14
12
10
15
15
12
10
14
13
12
15
13
13
12
12
12
12
10
13
14
14
16
19
14
17
17
16
14
14
10
16
10
14
14
10
10
11
11
12
10
14
11
12
11
13
12
17
11
11
12
10
10
17
19
19
19
14
17
17
17
14
10
12
16
9
13
14
16
14
16
11
11
10
11
11
13
13
13
11
17
11
11
12
10
10
19
19
17
19
20
17
17
16
16
10
16
16
9
16
14
16
14
11
15
12
10
12
12
11
13
11
12
11
17
11
12
10
10
20
19
17
15
18
20
15
16
12
9
16
16
16
13
14
15
14
11
15
12
10
12
11
13
13
12
10
12
12
12
12
12
10
